<svg width="24" height="24" viewBox="0 0 24 24" fill="none" xmlns="http://www.w3.org/2000/svg">
<rect x="0.5" y="0.5" width="23" height="23" rx="3.5" stroke="#F6F6F6"/>
<path fill-rule="evenodd" clip-rule="evenodd" d="M7.125 12C7.125 11.6548 7.40482 11.375 7.75 11.375H17C17.3452 11.375 17.625 11.6548 17.625 12C17.625 12.3452 17.3452 12.625 17 12.625H7.75C7.40482 12.625 7.125 12.3452 7.125 12Z" fill="white"/>
<path fill-rule="evenodd" clip-rule="evenodd" d="M11.4419 7.18306C11.686 7.42714 11.686 7.82286 11.4419 8.06694L7.50888 12L11.4419 15.9331C11.686 16.1771 11.686 16.5729 11.4419 16.8169C11.1979 17.061 10.8021 17.061 10.5581 16.8169L6.18306 12.4419C5.93898 12.1979 5.93898 11.8021 6.18306 11.5581L10.5581 7.18306C10.8021 6.93898 11.1979 6.93898 11.4419 7.18306Z" fill="white"/>
</svg>
